<svg xmlns="http://www.w3.org/2000/svg" viewBox="0 0 512 512" width="512" height="512"><defs><linearGradient id="tile" x1="0" y1="0" x2="1" y2="1"><stop offset="0" stop-color="#241a52"/><stop offset="1" stop-color="#3a2b78"/></linearGradient><linearGradient id="heart" x1="0" y1="0" x2="0" y2="1"><stop offset="0" stop-color="#EBC489"/><stop offset="1" stop-color="#E9A6AF"/></linearGradient><filter id="soft" x="-25%" y="-25%" width="150%" height="150%"><feDropShadow dx="0" dy="4" stdDeviation="7" flood-color="#000" flood-opacity="0.30"/></filter></defs><rect width="512" height="512" rx="116" fill="url(#tile)"/><g filter="url(#soft)"><path d="M256 396 C 152 320, 96 250, 96 196 C 96 150, 132 120, 174 120 C 208 120, 240 142, 256 180 C 272 142, 304 120, 338 120 C 380 120, 416 150, 416 196 C 416 250, 360 320, 256 396 Z" fill="none" stroke="url(#heart)" stroke-width="30" stroke-linejoin="round" stroke-linecap="round"/></g><g transform="translate(161.15,313.96) scale(0.1256,-0.1256)"><path d="M802 178Q802 139 783 116Q727 49 674.5 22.0Q622 -5 548 -5Q496 -5 452.0 8.0Q408 21 345 47Q288 72 235 88Q184 -5 82 -5Q26 -5 -7.5 20.5Q-41 46 -41 86Q-41 135 6.0 167.5Q53 200 131 200H144L162 491Q168 591 198.0 656.0Q228 721 281 767Q327 807 386.0 827.5Q445 848 511 848Q619 848 677.0 792.0Q735 736 735 646Q735 585 713.0 547.5Q691 510 652 510Q624 510 608.0 523.5Q592 537 592 562Q592 571 596 595Q602 623 602 645Q602 687 577.5 711.5Q553 736 503 736Q415 736 367.0 678.5Q319 621 306 498L283 271Q278 223 270 188Q334 177 430 153Q486 139 516.0 133.0Q546 127 569 127Q627 127 668.5 146.5Q710 166 747 209Q759 223 774 223Q787 223 794.5 211.0Q802 199 802 178ZM1551 396Q1551 370 1535.5 350.0Q1520 330 1487 329Q1407 327 1345 341Q1274 192 1173.5 93.5Q1073 -5 972 -5Q868 -5 817.0 116.0Q766 237 766 443Q766 619 791 759Q800 811 816.5 829.5Q833 848 873 848Q939 848 939 791Q939 785 937 769Q907 589 907 443Q907 290 932.5 210.5Q958 131 1009 131Q1061 131 1122.0 203.0Q1183 275 1234 384Q1173 422 1142.0 482.5Q1111 543 1111 622Q1111 701 1135.5 755.5Q1160 810 1202.5 837.0Q1245 864 1297 864Q1361 864 1398.5 818.0Q1436 772 1436 692Q1436 577 1386 441Q1439 432 1507 432Q1530 432 1540.5 422.0Q1551 412 1551 396ZM1275 484Q1314 596 1314 669Q1314 711 1303.0 730.5Q1292 750 1273 750Q1246 750 1229.0 718.5Q1212 687 1212 629Q1212 531 1275 484Z" fill="#F7F0E8" stroke="#F7F0E8" stroke-width="55.7" stroke-linejoin="round"/></g></svg>